<svg xmlns="http://www.w3.org/2000/svg" width="760" height="470" viewBox="0 0 760 470" role="img" aria-labelledby="title">
<title id="title">Most Used Languages</title>
<rect x="1" y="1" width="758" height="468" rx="12" fill="#ffffff" stroke="#d0d7de" stroke-width="2"/>
<text x="80" y="80" fill="#2f81f7" font-family="-apple-system, BlinkMacSystemFont, Segoe UI, sans-serif" font-size="36" font-weight="700">Most Used Languages</text>
<clipPath id="bar"><rect x="80" y="126" width="600" height="16" rx="8"/></clipPath>
<g clip-path="url(#bar)">
<rect x="80.00" y="126" width="310.54" height="16" fill="#555555"/>
<rect x="390.54" y="126" width="97.71" height="16" fill="#3572A5"/>
<rect x="488.25" y="126" width="79.67" height="16" fill="#b07219"/>
<rect x="567.93" y="126" width="43.78" height="16" fill="#F1E05A"/>
<rect x="611.71" y="126" width="37.53" height="16" fill="#A97BFF"/>
<rect x="649.23" y="126" width="12.69" height="16" fill="#00ADD8"/>
<rect x="661.92" y="126" width="6.79" height="16" fill="#89E051"/>
<rect x="668.72" y="126" width="6.37" height="16" fill="#563D7C"/>
<rect x="675.09" y="126" width="2.58" height="16" fill="#D29922"/>
<rect x="677.67" y="126" width="2.33" height="16" fill="#1F883D"/>
</g>
<circle cx="90" cy="191" r="10" fill="#555555"/>
<text x="110" y="198" fill="#3b4758" font-family="-apple-system, BlinkMacSystemFont, Segoe UI, sans-serif" font-size="22">C 51.76%</text>
<circle cx="420" cy="191" r="10" fill="#3572A5"/>
<text x="440" y="198" fill="#3b4758" font-family="-apple-system, BlinkMacSystemFont, Segoe UI, sans-serif" font-size="22">Python 16.28%</text>
<circle cx="90" cy="247" r="10" fill="#b07219"/>
<text x="110" y="254" fill="#3b4758" font-family="-apple-system, BlinkMacSystemFont, Segoe UI, sans-serif" font-size="22">Java 13.28%</text>
<circle cx="420" cy="247" r="10" fill="#F1E05A"/>
<text x="440" y="254" fill="#3b4758" font-family="-apple-system, BlinkMacSystemFont, Segoe UI, sans-serif" font-size="22">JavaScript 7.30%</text>
<circle cx="90" cy="303" r="10" fill="#A97BFF"/>
<text x="110" y="310" fill="#3b4758" font-family="-apple-system, BlinkMacSystemFont, Segoe UI, sans-serif" font-size="22">Kotlin 6.25%</text>
<circle cx="420" cy="303" r="10" fill="#00ADD8"/>
<text x="440" y="310" fill="#3b4758" font-family="-apple-system, BlinkMacSystemFont, Segoe UI, sans-serif" font-size="22">Go 2.11%</text>
<circle cx="90" cy="359" r="10" fill="#89E051"/>
<text x="110" y="366" fill="#3b4758" font-family="-apple-system, BlinkMacSystemFont, Segoe UI, sans-serif" font-size="22">Shell 1.13%</text>
<circle cx="420" cy="359" r="10" fill="#563D7C"/>
<text x="440" y="366" fill="#3b4758" font-family="-apple-system, BlinkMacSystemFont, Segoe UI, sans-serif" font-size="22">CSS 1.06%</text>
<circle cx="90" cy="415" r="10" fill="#D29922"/>
<text x="110" y="422" fill="#3b4758" font-family="-apple-system, BlinkMacSystemFont, Segoe UI, sans-serif" font-size="22">Meson 0.43%</text>
<circle cx="420" cy="415" r="10" fill="#1F883D"/>
<text x="440" y="422" fill="#3b4758" font-family="-apple-system, BlinkMacSystemFont, Segoe UI, sans-serif" font-size="22">PowerShell 0.39%</text>
</svg>
